<svg id="Layer_1" viewBox="0 0 24 24" xmlns="http://www.w3.org/2000/svg" data-name="Layer 1"><path d="m18 0c-3.314 0-6 2.686-6 6s2.686 6 6 6 6-2.686 6-6-2.686-6-6-6zm-1 3c0-.553.448-1 1-1s1 .447 1 1v2c0 .553-.448 1-1 1s-1-.447-1-1zm1 7c-.828 0-1.5-.672-1.5-1.5s.672-1.5 1.5-1.5 1.5.672 1.5 1.5-.672 1.5-1.5 1.5zm-13 2h7.721c1.409 1.241 3.254 2 5.279 2v5c0 .552-.448 1-1 1h-12c-.552 0-1-.448-1-1v-6c0-.552.448-1 1-1zm19 1v6c0 .552-.448 1-1 1h-1.101c-.465 2.279-2.485 4-4.899 4h-12c-2.757 0-5-2.243-5-5v-6c0-2.757 2.243-5 5-5h5.262c.183.71.458 1.381.817 2h-6.079c-1.657 0-3 1.343-3 3v6c0 1.657 1.343 3 3 3h12c1.657 0 3-1.343 3-3v-5.262c1.211-.312 2.311-.897 3.229-1.692.439.106.771.483.771.954z"/></svg>