<svg width="1280" height="118" viewBox="0 0 1280 118" fill="none" xmlns="http://www.w3.org/2000/svg">
<path d="M0 62.7548C0 32.3007 24.6879 7.61279 55.142 7.61279H1224.86C1255.31 7.61279 1280 32.3007 1280 62.7548C1280 93.2089 1255.31 117.897 1224.86 117.897H55.142C24.6879 117.897 0 93.2089 0 62.7548Z" fill="#262626"/>
<path d="M959.659 62.7549C959.659 42.0442 976.449 25.2549 997.159 25.2549H1217.17C1237.88 25.2549 1254.67 42.0442 1254.67 62.7549C1254.67 83.4656 1237.88 100.255 1217.17 100.255H997.159C976.449 100.255 959.659 83.4656 959.659 62.7549Z" fill="white"/>
<path d="M1024.79 38.7297C1024.16 37.6268 1023.21 36.7374 1022.06 36.1741C1020.92 35.6108 1019.64 35.3989 1018.37 35.5651C1017.11 35.7313 1015.93 36.2682 1014.97 37.108C1014.01 37.9477 1013.32 39.0525 1012.99 40.2827L1009.31 54.0414L1005.62 40.2852C1005.18 38.6354 1004.1 37.2288 1002.62 36.3748C1001.14 35.5208 999.386 35.2894 997.736 35.7315C996.087 36.1736 994.68 37.253 993.826 38.7322C992.972 40.2113 992.741 41.9692 993.183 43.619L995.712 53.0507L992.767 52.4835C991.348 52.1923 989.872 52.3881 988.578 53.0391C987.284 53.6901 986.247 54.7584 985.635 56.0713C985.023 57.3842 984.872 58.8651 985.206 60.2747C985.539 61.6843 986.338 62.9403 987.474 63.8397C986.285 64.7777 985.467 66.1076 985.168 67.5921C985.08 68.0258 985.036 68.4673 985.036 68.9098V70.6807C985.036 75.8045 987.072 80.7184 990.695 84.3414C994.318 87.9645 999.232 89.9999 1004.36 89.9999H1004.5C1015.08 89.9206 1023.67 81.1552 1023.67 70.4578V69.6305C1023.67 66.5807 1022.62 63.6243 1020.7 61.2539L1025.43 43.619C1025.65 42.8026 1025.71 41.9501 1025.6 41.1108C1025.49 40.2716 1025.22 39.4622 1024.79 38.7297ZM996.4 40.2158C996.743 39.6217 997.254 39.1426 997.87 38.8392C998.485 38.5357 999.176 38.4216 999.856 38.5112C1000.54 38.6009 1001.17 38.8902 1001.69 39.3426C1002.21 39.7951 1002.58 40.3903 1002.75 41.053L1006.58 55.3244C1005.04 55.2678 1003.52 55.7699 1002.32 56.7387C1002.22 56.5653 1002.12 56.3944 1002.01 56.226C1001.28 55.1186 1000.23 54.2658 998.993 53.7863L996.053 42.8487C995.934 42.4087 995.904 41.9495 995.963 41.4976C996.023 41.0457 996.171 40.6101 996.4 40.2158ZM988.08 58.0984C988.172 57.6511 988.351 57.2262 988.607 56.8481C988.863 56.4701 989.191 56.1463 989.573 55.8955C989.954 55.6446 990.382 55.4716 990.83 55.3864C991.279 55.3011 991.74 55.3053 992.187 55.3987L997.324 56.3894C997.785 56.4649 998.225 56.6327 998.62 56.8827C999.014 57.1326 999.354 57.4597 999.619 57.8442C999.884 58.2286 1000.07 58.6626 1000.16 59.1201C1000.25 59.5776 1000.25 60.0492 1000.16 60.5066C1000.07 60.964 999.882 61.3978 999.616 61.782C999.351 62.1661 999.011 62.4927 998.616 62.7422C998.222 62.9917 997.781 63.159 997.32 63.2339C996.859 63.3089 996.388 63.29 995.934 63.1784L992.962 62.6063L992.784 62.5716L992.685 62.5542L990.795 62.1902C989.896 62.0047 989.106 61.47 988.601 60.7033C988.095 59.9367 987.914 59.0008 988.098 58.1009L988.08 58.0984ZM988.08 68.1841C988.265 67.2905 988.793 66.5055 989.552 65.9992C990.311 65.4929 991.239 65.3062 992.135 65.4794L992.383 65.5289L994.646 65.9747C995.101 66.0569 995.535 66.2292 995.923 66.4815C996.31 66.7338 996.643 67.0611 996.902 67.444C997.161 67.8269 997.341 68.2578 997.431 68.7113C997.521 69.1647 997.52 69.6316 997.427 70.0845C997.334 70.5374 997.151 70.9671 996.89 71.3484C996.628 71.7297 996.293 72.0548 995.904 72.3046C995.515 72.5545 995.08 72.7241 994.625 72.8033C994.169 72.8826 993.703 72.8699 993.252 72.7662L990.775 72.2708C989.875 72.0859 989.086 71.5514 988.579 70.7847C988.073 70.018 987.892 69.0818 988.075 68.1816L988.08 68.1841ZM1020.7 70.4578C1020.7 79.5279 1013.42 86.9608 1004.48 87.0277C1000.8 87.0537 997.221 85.8394 994.318 83.5808C991.414 81.3221 989.356 78.151 988.477 74.5792C989.016 74.8633 989.593 75.0685 990.191 75.1885L992.668 75.6839C993.096 75.77 993.531 75.8139 993.968 75.8151C995.13 75.813 996.271 75.4962 997.268 74.8984C998.265 74.3006 999.081 73.444 999.631 72.4196C1000.18 71.3952 1000.44 70.2411 1000.39 69.0798C1000.34 67.9185 999.969 66.7934 999.328 65.8236L999.224 65.675C999.739 65.4479 1000.22 65.1548 1000.66 64.8032C1000.76 64.9782 1000.86 65.1491 1000.97 65.3159C1001.43 66.024 1002.03 66.6327 1002.74 67.1068C1003.44 67.5808 1004.23 67.9108 1005.06 68.0776L1007.12 68.4887C1006.93 69.2035 1006.83 69.9404 1006.83 70.6807C1006.83 72.8854 1007.69 75.0032 1009.24 76.5755C1009.51 76.857 1009.89 77.0173 1010.28 77.0213C1010.68 77.0252 1011.06 76.8725 1011.34 76.5966C1011.62 76.3207 1011.78 75.9443 1011.78 75.5501C1011.79 75.156 1011.64 74.7765 1011.36 74.495C1010.55 73.6637 1010.02 72.5933 1009.86 71.4407C1009.69 70.2881 1009.9 69.1139 1010.46 68.0899C1010.57 67.8853 1010.63 67.6574 1010.64 67.4246C1010.65 67.1918 1010.6 66.9606 1010.5 66.7497C1010.4 66.5387 1010.25 66.354 1010.07 66.2104C1009.89 66.0667 1009.67 65.9682 1009.44 65.9227L1005.64 65.1623C1005.19 65.0802 1004.75 64.9079 1004.37 64.6556C1003.98 64.4032 1003.65 64.076 1003.39 63.6931C1003.13 63.3101 1002.95 62.8793 1002.86 62.4258C1002.77 61.9723 1002.77 61.5054 1002.86 61.0525C1002.96 60.5997 1003.14 60.1699 1003.4 59.7887C1003.66 59.4074 1004 59.0823 1004.39 58.8324C1004.77 58.5826 1005.21 58.413 1005.67 58.3338C1006.12 58.2545 1006.59 58.2671 1007.04 58.3709L1012.34 59.4285C1014.69 59.905 1016.81 61.1806 1018.34 63.0395C1019.86 64.8985 1020.7 67.2267 1020.7 69.6305V70.4578ZM1022.56 42.8487L1018.26 58.896C1016.68 57.7153 1014.86 56.9021 1012.92 56.5158L1011.78 56.2879L1015.87 41.0555C1016.14 40.215 1016.73 39.5127 1017.51 39.0925C1018.29 38.6722 1019.2 38.5658 1020.06 38.7951C1020.91 39.0243 1021.65 39.5719 1022.11 40.3256C1022.57 41.0792 1022.73 41.9819 1022.55 42.8487H1022.56Z" fill="#38DC75"/>
<path d="M1050 85.2549V44.7549H1069.65C1074.22 44.7549 1077.78 45.9215 1080.35 48.2549C1082.92 50.5549 1084.2 53.7382 1084.2 57.8049C1084.2 61.8382 1082.92 65.0215 1080.35 67.3549C1077.78 69.6882 1074.22 70.8549 1069.65 70.8549H1059.4V85.2549H1050ZM1059.4 62.6549H1069.05C1070.92 62.6549 1072.33 62.2382 1073.3 61.4049C1074.3 60.5382 1074.8 59.3382 1074.8 57.8049C1074.8 56.2382 1074.3 55.0382 1073.3 54.2049C1072.33 53.3715 1070.92 52.9549 1069.05 52.9549H1059.4V62.6549ZM1101.57 85.8549C1098.27 85.8549 1095.4 85.2215 1092.97 83.9549C1090.54 82.6549 1088.65 80.8382 1087.32 78.5049C1086.02 76.1382 1085.37 73.3549 1085.37 70.1549C1085.37 66.9549 1086 64.2049 1087.27 61.9049C1088.57 59.5715 1090.4 57.7882 1092.77 56.5549C1095.17 55.2882 1097.99 54.6549 1101.22 54.6549C1104.42 54.6549 1107.17 55.2715 1109.47 56.5049C1111.77 57.7049 1113.52 59.4382 1114.72 61.7049C1115.95 63.9715 1116.57 66.6882 1116.57 69.8549V72.8049H1094.22C1094.59 74.7382 1095.39 76.2049 1096.62 77.2049C1097.85 78.1715 1099.49 78.6549 1101.52 78.6549C1103.15 78.6549 1104.42 78.4049 1105.32 77.9049C1106.25 77.3715 1106.92 76.5382 1107.32 75.4049H1116.52C1115.89 78.6715 1114.25 81.2382 1111.62 83.1049C1108.99 84.9382 1105.64 85.8549 1101.57 85.8549ZM1094.37 66.8049H1107.77C1107.47 65.1382 1106.77 63.9049 1105.67 63.1049C1104.6 62.2715 1103.14 61.8549 1101.27 61.8549C1099.44 61.8549 1097.94 62.2715 1096.77 63.1049C1095.6 63.9382 1094.8 65.1715 1094.37 66.8049ZM1131 85.8049C1127.4 85.8049 1124.59 84.9549 1122.55 83.2549C1120.55 81.5215 1119.55 79.2215 1119.55 76.3549C1119.55 73.3882 1120.6 71.1049 1122.7 69.5049C1124.84 67.8715 1127.87 67.0549 1131.8 67.0549H1139.85V65.9549C1139.85 63.2215 1138.12 61.8549 1134.65 61.8549C1131.59 61.8549 1129.72 62.8882 1129.05 64.9549H1119.95C1120.65 61.5549 1122.24 58.9882 1124.7 57.2549C1127.17 55.5215 1130.47 54.6549 1134.6 54.6549C1139.17 54.6549 1142.65 55.6715 1145.05 57.7049C1147.45 59.7049 1148.65 62.6382 1148.65 66.5049V76.2549H1152.95V85.2549H1143.75V80.2549H1141.65C1140.62 82.0549 1139.25 83.4382 1137.55 84.4049C1135.85 85.3382 1133.67 85.8049 1131 85.8049ZM1132.4 78.9049C1133.87 78.9049 1135.15 78.6549 1136.25 78.1549C1137.39 77.6549 1138.27 76.9715 1138.9 76.1049C1139.54 75.2382 1139.85 74.2715 1139.85 73.2049V73.0549H1132.2C1129.64 73.0549 1128.35 74.0049 1128.35 75.9049C1128.35 76.8715 1128.7 77.6215 1129.4 78.1549C1130.14 78.6549 1131.14 78.9049 1132.4 78.9049ZM1171.23 85.8549C1168.1 85.8549 1165.33 85.2215 1162.93 83.9549C1160.56 82.6549 1158.7 80.8382 1157.33 78.5049C1156 76.1715 1155.33 73.4215 1155.33 70.2549C1155.33 67.0882 1156 64.3382 1157.33 62.0049C1158.66 59.6715 1160.53 57.8715 1162.93 56.6049C1165.33 55.3049 1168.1 54.6549 1171.23 54.6549C1175.3 54.6549 1178.63 55.6882 1181.23 57.7549C1183.86 59.8215 1185.48 62.6215 1186.08 66.1549H1176.88C1176.48 65.0549 1175.8 64.2049 1174.83 63.6049C1173.9 62.9715 1172.7 62.6549 1171.23 62.6549C1169.26 62.6549 1167.65 63.3215 1166.38 64.6549C1165.15 65.9549 1164.53 67.8215 1164.53 70.2549C1164.53 72.6882 1165.16 74.5715 1166.43 75.9049C1167.7 77.2049 1169.3 77.8549 1171.23 77.8549C1174.4 77.8549 1176.33 76.5382 1177.03 73.9049H1186.23C1185.7 77.6049 1184.13 80.5215 1181.53 82.6549C1178.93 84.7882 1175.5 85.8549 1171.23 85.8549ZM1204.05 85.8549C1200.75 85.8549 1197.88 85.2215 1195.45 83.9549C1193.02 82.6549 1191.13 80.8382 1189.8 78.5049C1188.5 76.1382 1187.85 73.3549 1187.85 70.1549C1187.85 66.9549 1188.48 64.2049 1189.75 61.9049C1191.05 59.5715 1192.88 57.7882 1195.25 56.5549C1197.65 55.2882 1200.47 54.6549 1203.7 54.6549C1206.9 54.6549 1209.65 55.2715 1211.95 56.5049C1214.25 57.7049 1216 59.4382 1217.2 61.7049C1218.43 63.9715 1219.05 66.6882 1219.05 69.8549V72.8049H1196.7C1197.07 74.7382 1197.87 76.2049 1199.1 77.2049C1200.33 78.1715 1201.97 78.6549 1204 78.6549C1205.63 78.6549 1206.9 78.4049 1207.8 77.9049C1208.73 77.3715 1209.4 76.5382 1209.8 75.4049H1219C1218.37 78.6715 1216.73 81.2382 1214.1 83.1049C1211.47 84.9382 1208.12 85.8549 1204.05 85.8549ZM1196.85 66.8049H1210.25C1209.95 65.1382 1209.25 63.9049 1208.15 63.1049C1207.08 62.2715 1205.62 61.8549 1203.75 61.8549C1201.92 61.8549 1200.42 62.2715 1199.25 63.1049C1198.08 63.9382 1197.28 65.1715 1196.85 66.8049Z" fill="#262626"/>
<path d="M0 62.7548C0 32.3007 24.6879 7.61279 55.142 7.61279H134.847C165.301 7.61279 189.989 32.3007 189.989 62.7548C189.989 93.2089 165.301 117.897 134.847 117.897H55.142C24.6879 117.897 0 93.2089 0 62.7548Z" fill="#38DC75"/>
<path d="M55.5437 40.4589C56.6265 41.1562 57.0268 42.4212 56.5355 43.5239L49.4018 59.4249H62.5682C63.7966 59.4249 64.8885 60.1061 65.307 61.1359C65.7256 62.1657 65.3707 63.3171 64.4335 64.0144L38.228 83.4751C37.1998 84.2373 35.7349 84.2779 34.6521 83.5805C33.5693 82.8832 33.1689 81.6182 33.6603 80.5155L40.794 64.6145H27.6276C26.3992 64.6145 25.3073 63.9333 24.8887 62.9035C24.4702 61.8737 24.825 60.7223 25.7622 60.025L51.9677 40.5643C52.9959 39.8021 54.4609 39.7615 55.5437 40.4589Z" fill="#262626"/>
<line x1="167.345" y1="39.7571" x2="167.345" y2="85.7525" stroke="#262626" stroke-width="4" stroke-linecap="round"/>
<mask id="path-8-outside-1_340_152" maskUnits="userSpaceOnUse" x="180.333" y="24" width="281" height="72" fill="black">
<rect fill="white" x="180.333" y="24" width="281" height="72"/>
<path d="M185.333 90V29.25H214.808C221.658 29.25 227.008 31 230.858 34.5C234.708 37.95 236.633 42.725 236.633 48.825C236.633 54.875 234.708 59.65 230.858 63.15C227.008 66.65 221.658 68.4 214.808 68.4H199.433V90H185.333ZM199.433 56.1H213.908C216.708 56.1 218.833 55.475 220.283 54.225C221.783 52.925 222.533 51.125 222.533 48.825C222.533 46.475 221.783 44.675 220.283 43.425C218.833 42.175 216.708 41.55 213.908 41.55H199.433V56.1ZM262.986 90.9C258.036 90.9 253.711 89.95 250.011 88.05C246.311 86.1 243.436 83.375 241.386 79.875C239.386 76.325 238.386 72.175 238.386 67.425C238.386 62.675 239.386 58.55 241.386 55.05C243.436 51.55 246.311 48.85 250.011 46.95C253.711 45.05 258.061 44.1 263.061 44.1C268.061 44.1 272.361 45.05 275.961 46.95C279.611 48.85 282.436 51.55 284.436 55.05C286.436 58.55 287.436 62.7 287.436 67.5C287.436 72.25 286.436 76.4 284.436 79.95C282.436 83.45 279.611 86.15 275.961 88.05C272.311 89.95 267.986 90.9 262.986 90.9ZM262.986 78.9C266.436 78.9 269.061 77.875 270.861 75.825C272.711 73.725 273.636 70.925 273.636 67.425C273.636 63.925 272.711 61.175 270.861 59.175C269.061 57.125 266.436 56.1 262.986 56.1C259.486 56.1 256.811 57.125 254.961 59.175C253.111 61.175 252.186 63.925 252.186 67.425C252.186 70.925 253.111 73.725 254.961 75.825C256.811 77.875 259.486 78.9 262.986 78.9ZM304.103 90L289.403 45H303.503L311.978 72.6H312.353L322.253 45H335.003L344.828 72.6H345.203L353.753 45H367.703L353.078 90H338.528L328.703 63.6H328.403L318.653 90H304.103ZM393.994 90.9C389.044 90.9 384.744 89.95 381.094 88.05C377.444 86.1 374.619 83.375 372.619 79.875C370.669 76.325 369.694 72.15 369.694 67.35C369.694 62.55 370.644 58.425 372.544 54.975C374.494 51.475 377.244 48.8 380.794 46.95C384.394 45.05 388.619 44.1 393.469 44.1C398.269 44.1 402.394 45.025 405.844 46.875C409.294 48.675 411.919 51.275 413.719 54.675C415.569 58.075 416.494 62.15 416.494 66.9V71.325H382.969C383.519 74.225 384.719 76.425 386.569 77.925C388.419 79.375 390.869 80.1 393.919 80.1C396.369 80.1 398.269 79.725 399.619 78.975C401.019 78.175 402.019 76.925 402.619 75.225H416.419C415.469 80.125 413.019 83.975 409.069 86.775C405.119 89.525 400.094 90.9 393.994 90.9ZM383.194 62.325H403.294C402.844 59.825 401.794 57.975 400.144 56.775C398.544 55.525 396.344 54.9 393.544 54.9C390.794 54.9 388.544 55.525 386.794 56.775C385.044 58.025 383.844 59.875 383.194 62.325ZM427.421 90V58.5H420.671V45H434.471V54H437.621C438.771 50.75 440.646 48.35 443.246 46.8C445.846 45.2 448.746 44.4 451.946 44.4H455.771V56.4H451.346C447.646 56.4 444.971 57.425 443.321 59.475C441.721 61.525 440.921 64.2 440.921 67.5V90H427.421Z"/>
</mask>
<path d="M185.333 90V29.25H214.808C221.658 29.25 227.008 31 230.858 34.5C234.708 37.95 236.633 42.725 236.633 48.825C236.633 54.875 234.708 59.65 230.858 63.15C227.008 66.65 221.658 68.4 214.808 68.4H199.433V90H185.333ZM199.433 56.1H213.908C216.708 56.1 218.833 55.475 220.283 54.225C221.783 52.925 222.533 51.125 222.533 48.825C222.533 46.475 221.783 44.675 220.283 43.425C218.833 42.175 216.708 41.55 213.908 41.55H199.433V56.1ZM262.986 90.9C258.036 90.9 253.711 89.95 250.011 88.05C246.311 86.1 243.436 83.375 241.386 79.875C239.386 76.325 238.386 72.175 238.386 67.425C238.386 62.675 239.386 58.55 241.386 55.05C243.436 51.55 246.311 48.85 250.011 46.95C253.711 45.05 258.061 44.1 263.061 44.1C268.061 44.1 272.361 45.05 275.961 46.95C279.611 48.85 282.436 51.55 284.436 55.05C286.436 58.55 287.436 62.7 287.436 67.5C287.436 72.25 286.436 76.4 284.436 79.95C282.436 83.45 279.611 86.15 275.961 88.05C272.311 89.95 267.986 90.9 262.986 90.9ZM262.986 78.9C266.436 78.9 269.061 77.875 270.861 75.825C272.711 73.725 273.636 70.925 273.636 67.425C273.636 63.925 272.711 61.175 270.861 59.175C269.061 57.125 266.436 56.1 262.986 56.1C259.486 56.1 256.811 57.125 254.961 59.175C253.111 61.175 252.186 63.925 252.186 67.425C252.186 70.925 253.111 73.725 254.961 75.825C256.811 77.875 259.486 78.9 262.986 78.9ZM304.103 90L289.403 45H303.503L311.978 72.6H312.353L322.253 45H335.003L344.828 72.6H345.203L353.753 45H367.703L353.078 90H338.528L328.703 63.6H328.403L318.653 90H304.103ZM393.994 90.9C389.044 90.9 384.744 89.95 381.094 88.05C377.444 86.1 374.619 83.375 372.619 79.875C370.669 76.325 369.694 72.15 369.694 67.35C369.694 62.55 370.644 58.425 372.544 54.975C374.494 51.475 377.244 48.8 380.794 46.95C384.394 45.05 388.619 44.1 393.469 44.1C398.269 44.1 402.394 45.025 405.844 46.875C409.294 48.675 411.919 51.275 413.719 54.675C415.569 58.075 416.494 62.15 416.494 66.9V71.325H382.969C383.519 74.225 384.719 76.425 386.569 77.925C388.419 79.375 390.869 80.1 393.919 80.1C396.369 80.1 398.269 79.725 399.619 78.975C401.019 78.175 402.019 76.925 402.619 75.225H416.419C415.469 80.125 413.019 83.975 409.069 86.775C405.119 89.525 400.094 90.9 393.994 90.9ZM383.194 62.325H403.294C402.844 59.825 401.794 57.975 400.144 56.775C398.544 55.525 396.344 54.9 393.544 54.9C390.794 54.9 388.544 55.525 386.794 56.775C385.044 58.025 383.844 59.875 383.194 62.325ZM427.421 90V58.5H420.671V45H434.471V54H437.621C438.771 50.75 440.646 48.35 443.246 46.8C445.846 45.2 448.746 44.4 451.946 44.4H455.771V56.4H451.346C447.646 56.4 444.971 57.425 443.321 59.475C441.721 61.525 440.921 64.2 440.921 67.5V90H427.421Z" fill="white"/>
<path d="M185.333 90H180.333C180.333 92.7614 182.571 95 185.333 95V90ZM185.333 29.25V24.25C182.571 24.25 180.333 26.4886 180.333 29.25H185.333ZM230.858 34.5L227.494 38.1997C227.503 38.2077 227.512 38.2157 227.521 38.2237L230.858 34.5ZM199.433 68.4V63.4C196.671 63.4 194.433 65.6386 194.433 68.4H199.433ZM199.433 90V95C202.194 95 204.433 92.7614 204.433 90H199.433ZM199.433 56.1H194.433C194.433 58.8614 196.671 61.1 199.433 61.1V56.1ZM220.283 54.225L223.547 58.0121L223.557 58.0034L220.283 54.225ZM220.283 43.425L217.018 47.212C217.039 47.2302 217.06 47.2483 217.082 47.2661L220.283 43.425ZM199.433 41.55V36.55C196.671 36.55 194.433 38.7886 194.433 41.55H199.433ZM185.333 90H190.333V29.25H185.333H180.333V90H185.333ZM185.333 29.25V34.25H214.808V29.25V24.25H185.333V29.25ZM214.808 29.25V34.25C220.816 34.25 224.824 35.7727 227.494 38.1997L230.858 34.5L234.221 30.8003C229.191 26.2273 222.499 24.25 214.808 24.25V29.25ZM230.858 34.5L227.521 38.2237C230.12 40.5531 231.633 43.866 231.633 48.825H236.633H241.633C241.633 41.584 239.295 35.3469 234.194 30.7763L230.858 34.5ZM236.633 48.825H231.633C231.633 53.718 230.129 57.0549 227.494 59.4503L230.858 63.15L234.221 66.8497C239.286 62.2451 241.633 56.032 241.633 48.825H236.633ZM230.858 63.15L227.494 59.4503C224.824 61.8773 220.816 63.4 214.808 63.4V68.4V73.4C222.499 73.4 229.191 71.4227 234.221 66.8497L230.858 63.15ZM214.808 68.4V63.4H199.433V68.4V73.4H214.808V68.4ZM199.433 68.4H194.433V90H199.433H204.433V68.4H199.433ZM199.433 90V85H185.333V90V95H199.433V90ZM199.433 56.1V61.1H213.908V56.1V51.1H199.433V56.1ZM213.908 56.1V61.1C217.364 61.1 220.85 60.3375 223.547 58.012L220.283 54.225L217.018 50.438C216.815 50.6125 216.051 51.1 213.908 51.1V56.1ZM220.283 54.225L223.557 58.0034C226.332 55.5986 227.533 52.3201 227.533 48.825H222.533H217.533C217.533 49.9299 217.233 50.2514 217.008 50.4466L220.283 54.225ZM222.533 48.825H227.533C227.533 45.324 226.357 41.9782 223.483 39.5839L220.283 43.425L217.082 47.2661C217.208 47.3718 217.533 47.626 217.533 48.825H222.533ZM220.283 43.425L223.547 39.638C220.85 37.3125 217.364 36.55 213.908 36.55V41.55V46.55C216.051 46.55 216.815 47.0375 217.018 47.212L220.283 43.425ZM213.908 41.55V36.55H199.433V41.55V46.55H213.908V41.55ZM199.433 41.55H194.433V56.1H199.433H204.433V41.55H199.433ZM250.011 88.05L247.679 92.4733C247.695 92.4816 247.711 92.4897 247.727 92.4978L250.011 88.05ZM241.386 79.875L237.029 82.3292C237.043 82.3536 237.057 82.3779 237.071 82.402L241.386 79.875ZM241.386 55.05L237.071 52.523C237.062 52.5384 237.053 52.5538 237.044 52.5693L241.386 55.05ZM250.011 46.95L247.727 42.5022V42.5022L250.011 46.95ZM275.961 46.95L273.627 51.3719C273.635 51.3763 273.644 51.3807 273.652 51.3851L275.961 46.95ZM284.436 55.05L288.777 52.5693V52.5693L284.436 55.05ZM284.436 79.95L288.777 82.4307C288.782 82.4219 288.787 82.4131 288.792 82.4042L284.436 79.95ZM275.961 88.05L278.269 92.4851V92.4851L275.961 88.05ZM270.861 75.825L267.109 72.5198L267.103 72.526L270.861 75.825ZM270.861 59.175L267.103 62.474C267.132 62.5064 267.161 62.5385 267.19 62.5702L270.861 59.175ZM254.961 59.175L258.631 62.5702C258.645 62.5552 258.659 62.54 258.673 62.5248L254.961 59.175ZM254.961 75.825L251.209 79.1301C251.222 79.1451 251.235 79.16 251.249 79.1748L254.961 75.825ZM262.986 90.9V85.9C258.68 85.9 255.166 85.0764 252.295 83.6022L250.011 88.05L247.727 92.4978C252.256 94.8236 257.391 95.9 262.986 95.9V90.9ZM250.011 88.05L252.342 83.6267C249.44 82.0973 247.264 80.0174 245.7 77.348L241.386 79.875L237.071 82.402C239.608 86.7326 243.181 90.1028 247.679 92.4733L250.011 88.05ZM241.386 79.875L245.742 77.4208C244.229 74.7358 243.386 71.4588 243.386 67.425H238.386H233.386C233.386 72.8912 234.542 77.9142 237.029 82.3292L241.386 79.875ZM238.386 67.425H243.386C243.386 63.3891 244.23 60.1504 245.727 57.5307L241.386 55.05L237.044 52.5693C234.541 56.9496 233.386 61.9609 233.386 67.425H238.386ZM241.386 55.05L245.7 57.577C247.257 54.919 249.418 52.8753 252.295 51.3978L250.011 46.95L247.727 42.5022C243.204 44.8247 239.614 48.181 237.071 52.523L241.386 55.05ZM250.011 46.95L252.295 51.3978C255.159 49.927 258.696 49.1 263.061 49.1V44.1V39.1C257.425 39.1 252.262 40.173 247.727 42.5022L250.011 46.95ZM263.061 44.1V49.1C267.43 49.1 270.892 49.9287 273.627 51.3719L275.961 46.95L278.294 42.5281C273.829 40.1713 268.691 39.1 263.061 39.1V44.1ZM275.961 46.95L273.652 51.3851C276.47 52.8519 278.581 54.8818 280.094 57.5307L284.436 55.05L288.777 52.5693C286.291 48.2182 282.752 44.8481 278.269 42.5149L275.961 46.95ZM284.436 55.05L280.094 57.5307C281.587 60.1428 282.436 63.4038 282.436 67.5H287.436H292.436C292.436 61.9962 291.284 56.9572 288.777 52.5693L284.436 55.05ZM287.436 67.5H282.436C282.436 71.5338 281.592 74.8108 280.079 77.4958L284.436 79.95L288.792 82.4042C291.279 77.9892 292.436 72.9662 292.436 67.5H287.436ZM284.436 79.95L280.094 77.4693C278.581 80.1182 276.47 82.1481 273.652 83.6149L275.961 88.05L278.269 92.4851C282.752 90.1519 286.291 86.7818 288.777 82.4307L284.436 79.95ZM275.961 88.05L273.652 83.6149C270.853 85.0722 267.353 85.9 262.986 85.9V90.9V95.9C268.618 95.9 273.769 94.8278 278.269 92.4851L275.961 88.05ZM262.986 78.9V83.9C267.465 83.9 271.628 82.5287 274.618 79.124L270.861 75.825L267.103 72.526C266.493 73.2213 265.406 73.9 262.986 73.9V78.9ZM270.861 75.825L274.612 79.1301C277.454 75.9049 278.636 71.8258 278.636 67.425H273.636H268.636C268.636 70.0242 267.968 71.5451 267.109 72.5199L270.861 75.825ZM273.636 67.425H278.636C278.636 63.0369 277.458 58.944 274.531 55.7798L270.861 59.175L267.19 62.5702C267.963 63.406 268.636 64.8131 268.636 67.425H273.636ZM270.861 59.175L274.618 55.876C271.628 52.4713 267.465 51.1 262.986 51.1V56.1V61.1C265.406 61.1 266.493 61.7787 267.103 62.474L270.861 59.175ZM262.986 56.1V51.1C258.475 51.1 254.288 52.4577 251.249 55.8252L254.961 59.175L258.673 62.5248C259.334 61.7923 260.496 61.1 262.986 61.1V56.1ZM254.961 59.175L251.29 55.7798C248.363 58.944 247.186 63.0369 247.186 67.425H252.186H257.186C257.186 64.8131 257.858 63.406 258.631 62.5702L254.961 59.175ZM252.186 67.425H247.186C247.186 71.8258 248.368 75.9049 251.209 79.1301L254.961 75.825L258.712 72.5199C257.854 71.5451 257.186 70.0242 257.186 67.425H252.186ZM254.961 75.825L251.249 79.1748C254.288 82.5423 258.475 83.9 262.986 83.9V78.9V73.9C260.496 73.9 259.334 73.2077 258.673 72.4752L254.961 75.825ZM304.103 90L299.35 91.5526C300.022 93.6089 301.94 95 304.103 95V90ZM289.403 45V40C287.801 40 286.296 40.7675 285.356 42.0643C284.415 43.361 284.153 45.0299 284.65 46.5526L289.403 45ZM303.503 45L308.283 43.5323C307.638 41.433 305.699 40 303.503 40V45ZM311.978 72.6L307.198 74.0677C307.843 76.167 309.782 77.6 311.978 77.6V72.6ZM312.353 72.6V77.6C314.464 77.6 316.347 76.2748 317.06 74.2882L312.353 72.6ZM322.253 45V40C320.143 40 318.259 41.3252 317.547 43.3118L322.253 45ZM335.003 45L339.714 43.3232C339.004 41.3307 337.118 40 335.003 40V45ZM344.828 72.6L340.118 74.2768C340.827 76.2693 342.713 77.6 344.828 77.6V72.6ZM345.203 72.6V77.6C347.395 77.6 349.331 76.1729 349.979 74.0795L345.203 72.6ZM353.753 45V40C351.562 40 349.626 41.4271 348.977 43.5205L353.753 45ZM367.703 45L372.458 46.5454C372.953 45.0232 372.689 43.3562 371.748 42.0612C370.808 40.7663 369.304 40 367.703 40V45ZM353.078 90V95C355.244 95 357.164 93.6054 357.833 91.5454L353.078 90ZM338.528 90L333.842 91.7439C334.571 93.7016 336.439 95 338.528 95V90ZM328.703 63.6L333.389 61.8561C332.661 59.8984 330.792 58.6 328.703 58.6V63.6ZM328.403 63.6V58.6C326.31 58.6 324.438 59.9041 323.713 61.8678L328.403 63.6ZM318.653 90V95C320.747 95 322.618 93.6959 323.344 91.7322L318.653 90ZM304.103 90L308.856 88.4474L294.156 43.4474L289.403 45L284.65 46.5526L299.35 91.5526L304.103 90ZM289.403 45V50H303.503V45V40H289.403V45ZM303.503 45L298.723 46.4677L307.198 74.0677L311.978 72.6L316.758 71.1323L308.283 43.5323L303.503 45ZM311.978 72.6V77.6H312.353V72.6V67.6H311.978V72.6ZM312.353 72.6L317.06 74.2882L326.96 46.6882L322.253 45L317.547 43.3118L307.647 70.9118L312.353 72.6ZM322.253 45V50H335.003V45V40H322.253V45ZM335.003 45L330.293 46.6768L340.118 74.2768L344.828 72.6L349.539 70.9232L339.714 43.3232L335.003 45ZM344.828 72.6V77.6H345.203V72.6V67.6H344.828V72.6ZM345.203 72.6L349.979 74.0795L358.529 46.4795L353.753 45L348.977 43.5205L340.427 71.1205L345.203 72.6ZM353.753 45V50H367.703V45V40H353.753V45ZM367.703 45L362.948 43.4546L348.323 88.4546L353.078 90L357.833 91.5454L372.458 46.5454L367.703 45ZM353.078 90V85H338.528V90V95H353.078V90ZM338.528 90L343.214 88.2561L333.389 61.8561L328.703 63.6L324.017 65.3439L333.842 91.7439L338.528 90ZM328.703 63.6V58.6H328.403V63.6V68.6H328.703V63.6ZM328.403 63.6L323.713 61.8678L313.963 88.2678L318.653 90L323.344 91.7322L333.094 65.3322L328.403 63.6ZM318.653 90V85H304.103V90V95H318.653V90ZM381.094 88.05L378.738 92.4601C378.754 92.4685 378.77 92.4768 378.786 92.4851L381.094 88.05ZM372.619 79.875L368.237 82.2822C368.25 82.3068 368.264 82.3313 368.278 82.3557L372.619 79.875ZM372.544 54.975L368.176 52.5415C368.172 52.5486 368.168 52.5558 368.165 52.563L372.544 54.975ZM380.794 46.95L383.105 51.384C383.113 51.38 383.12 51.376 383.128 51.3719L380.794 46.95ZM405.844 46.875L403.481 51.2814C403.498 51.2904 403.515 51.2992 403.531 51.3079L405.844 46.875ZM413.719 54.675L409.3 57.0144C409.309 57.0313 409.318 57.048 409.327 57.0647L413.719 54.675ZM416.494 71.325V76.325C419.256 76.325 421.494 74.0864 421.494 71.325H416.494ZM382.969 71.325V66.325C381.48 66.325 380.068 66.9888 379.118 68.1358C378.168 69.2828 377.779 70.7935 378.057 72.2567L382.969 71.325ZM386.569 77.925L383.42 81.8088C383.442 81.8261 383.463 81.8433 383.485 81.8603L386.569 77.925ZM399.619 78.975L402.047 83.3458C402.065 83.336 402.083 83.3262 402.1 83.3162L399.619 78.975ZM402.619 75.225V70.225C400.499 70.225 398.61 71.5618 397.904 73.5609L402.619 75.225ZM416.419 75.225L421.328 76.1767C421.612 74.7112 421.226 73.1953 420.277 72.0437C419.327 70.892 417.912 70.225 416.419 70.225V75.225ZM409.069 86.775L411.926 90.8785C411.938 90.8704 411.949 90.8623 411.961 90.8541L409.069 86.775ZM383.194 62.325L378.361 61.0428C377.963 62.5432 378.285 64.1434 379.231 65.3737C380.178 66.604 381.642 67.325 383.194 67.325V62.325ZM403.294 62.325V67.325C404.775 67.325 406.18 66.6684 407.13 65.5321C408.08 64.3959 408.478 62.8969 408.215 61.4392L403.294 62.325ZM400.144 56.775L397.066 60.7151C397.111 60.7504 397.157 60.785 397.203 60.8187L400.144 56.775ZM393.994 90.9V85.9C389.686 85.9 386.209 85.0757 383.403 83.6149L381.094 88.05L378.786 92.4851C383.279 94.8243 388.402 95.9 393.994 95.9V90.9ZM381.094 88.05L383.45 83.6399C380.607 82.121 378.481 80.0546 376.96 77.3943L372.619 79.875L368.278 82.3557C370.758 86.6954 374.281 90.079 378.738 92.4601L381.094 88.05ZM372.619 79.875L377.002 77.4678C375.526 74.7809 374.694 71.4643 374.694 67.35H369.694H364.694C364.694 72.8357 365.813 77.8691 368.237 82.2822L372.619 79.875ZM369.694 67.35H374.694C374.694 63.2104 375.511 59.9529 376.924 57.387L372.544 54.975L368.165 52.563C365.778 56.8971 364.694 61.8896 364.694 67.35H369.694ZM372.544 54.975L376.912 57.4085C378.387 54.7612 380.422 52.7821 383.105 51.384L380.794 46.95L378.484 42.516C374.066 44.8179 370.601 48.1888 368.176 52.5415L372.544 54.975ZM380.794 46.95L383.128 51.3719C385.883 49.9179 389.278 49.1 393.469 49.1V44.1V39.1C387.961 39.1 382.905 40.1821 378.46 42.5281L380.794 46.95ZM393.469 44.1V49.1C397.629 49.1 400.905 49.8998 403.481 51.2814L405.844 46.875L408.207 42.4685C403.884 40.1502 398.91 39.1 393.469 39.1V44.1ZM405.844 46.875L403.531 51.3079C406.095 52.6452 407.98 54.5204 409.3 57.0144L413.719 54.675L418.138 52.3356C415.859 48.0296 412.494 44.7048 408.157 42.4421L405.844 46.875ZM413.719 54.675L409.327 57.0647C410.697 59.5826 411.494 62.7973 411.494 66.9H416.494H421.494C421.494 61.5027 420.441 56.5674 418.111 52.2853L413.719 54.675ZM416.494 66.9H411.494V71.325H416.494H421.494V66.9H416.494ZM416.494 71.325V66.325H382.969V71.325V76.325H416.494V71.325ZM382.969 71.325L378.057 72.2567C378.773 76.0309 380.448 79.3987 383.42 81.8088L386.569 77.925L389.718 74.0412C388.991 73.4513 388.266 72.4191 387.882 70.3933L382.969 71.325ZM386.569 77.925L383.485 81.8603C386.447 84.1819 390.086 85.1 393.919 85.1V80.1V75.1C391.652 75.1 390.392 74.5681 389.654 73.9897L386.569 77.925ZM393.919 80.1V85.1C396.769 85.1 399.642 84.6824 402.047 83.3458L399.619 78.975L397.191 74.6042C396.897 74.7676 395.969 75.1 393.919 75.1V80.1ZM399.619 78.975L402.1 83.3162C404.666 81.8497 406.385 79.5778 407.334 76.8891L402.619 75.225L397.904 73.5609C397.653 74.2722 397.372 74.5003 397.139 74.6338L399.619 78.975ZM402.619 75.225V80.225H416.419V75.225V70.225H402.619V75.225ZM416.419 75.225L411.511 74.2733C410.797 77.9535 409.043 80.6651 406.178 82.6959L409.069 86.775L411.961 90.8541C416.996 87.2849 420.141 82.2965 421.328 76.1767L416.419 75.225ZM409.069 86.775L406.212 82.6715C403.3 84.6989 399.346 85.9 393.994 85.9V90.9V95.9C400.842 95.9 406.938 94.3511 411.926 90.8785L409.069 86.775ZM383.194 62.325V67.325H403.294V62.325V57.325H383.194V62.325ZM403.294 62.325L408.215 61.4392C407.596 57.9973 406.018 54.8644 403.085 52.7313L400.144 56.775L397.203 60.8187C397.57 61.0856 398.093 61.6527 398.373 63.2108L403.294 62.325ZM400.144 56.775L403.222 52.8349C400.463 50.6792 397.043 49.9 393.544 49.9V54.9V59.9C395.646 59.9 396.625 60.3708 397.066 60.7151L400.144 56.775ZM393.544 54.9V49.9C390.043 49.9 386.696 50.701 383.888 52.7063L386.794 56.775L389.7 60.8437C390.393 60.349 391.545 59.9 393.544 59.9V54.9ZM386.794 56.775L383.888 52.7063C381.028 54.7492 379.254 57.6785 378.361 61.0428L383.194 62.325L388.027 63.6072C388.434 62.0715 389.06 61.3008 389.7 60.8437L386.794 56.775ZM427.421 90H422.421C422.421 92.7614 424.659 95 427.421 95V90ZM427.421 58.5H432.421C432.421 55.7386 430.182 53.5 427.421 53.5V58.5ZM420.671 58.5H415.671C415.671 61.2614 417.909 63.5 420.671 63.5V58.5ZM420.671 45V40C417.909 40 415.671 42.2386 415.671 45H420.671ZM434.471 45H439.471C439.471 42.2386 437.232 40 434.471 40V45ZM434.471 54H429.471C429.471 56.7614 431.709 59 434.471 59V54ZM437.621 54V59C439.739 59 441.628 57.665 442.334 55.6679L437.621 54ZM443.246 46.8L445.806 51.0947C445.826 51.0827 445.846 51.0706 445.866 51.0583L443.246 46.8ZM455.771 44.4H460.771C460.771 41.6386 458.532 39.4 455.771 39.4V44.4ZM455.771 56.4V61.4C458.532 61.4 460.771 59.1614 460.771 56.4H455.771ZM443.321 59.475L439.426 56.34C439.41 56.3594 439.395 56.379 439.379 56.3986L443.321 59.475ZM440.921 90V95C443.682 95 445.921 92.7614 445.921 90H440.921ZM427.421 90H432.421V58.5H427.421H422.421V90H427.421ZM427.421 58.5V53.5H420.671V58.5V63.5H427.421V58.5ZM420.671 58.5H425.671V45H420.671H415.671V58.5H420.671ZM420.671 45V50H434.471V45V40H420.671V45ZM434.471 45H429.471V54H434.471H439.471V45H434.471ZM434.471 54V59H437.621V54V49H434.471V54ZM437.621 54L442.334 55.6679C443.152 53.3562 444.347 51.9649 445.806 51.0947L443.246 46.8L440.685 42.5053C436.945 44.7351 434.389 48.1438 432.907 52.3321L437.621 54ZM443.246 46.8L445.866 51.0583C447.639 49.9671 449.624 49.4 451.946 49.4V44.4V39.4C447.867 39.4 444.052 40.4329 440.625 42.5417L443.246 46.8ZM451.946 44.4V49.4H455.771V44.4V39.4H451.946V44.4ZM455.771 44.4H450.771V56.4H455.771H460.771V44.4H455.771ZM455.771 56.4V51.4H451.346V56.4V61.4H455.771V56.4ZM451.346 56.4V51.4C446.777 51.4 442.367 52.6861 439.426 56.34L443.321 59.475L447.216 62.61C447.575 62.1639 448.514 61.4 451.346 61.4V56.4ZM443.321 59.475L439.379 56.3986C436.927 59.5405 435.921 63.3896 435.921 67.5H440.921H445.921C445.921 65.0104 446.515 63.5095 447.262 62.5514L443.321 59.475ZM440.921 67.5H435.921V90H440.921H445.921V67.5H440.921ZM440.921 90V85H427.421V90V95H440.921V90Z" fill="#262626" mask="url(#path-8-outside-1_340_152)"/>
<path d="M736.498 62.7549C736.498 42.0442 753.287 25.2549 773.998 25.2549H914.225C934.936 25.2549 951.725 42.0442 951.725 62.7549C951.725 83.4656 934.936 100.255 914.225 100.255H773.998C753.287 100.255 736.498 83.4656 736.498 62.7549Z" fill="white"/>
<path d="M791.037 69.2549V55.7549H797.97C798.781 55.7549 799.492 55.8993 800.103 56.1882C800.715 56.4771 801.192 56.8827 801.537 57.4049C801.881 57.916 802.053 58.5104 802.053 59.1882C802.053 59.866 801.876 60.4438 801.52 60.9215C801.165 61.3882 800.681 61.7382 800.07 61.9715V62.0382C800.592 62.1715 801.048 62.3938 801.437 62.7049C801.837 63.016 802.148 63.3993 802.37 63.8549C802.603 64.3104 802.72 64.8271 802.72 65.4049C802.72 66.1715 802.531 66.8438 802.153 67.4215C801.776 67.9993 801.253 68.4493 800.587 68.7715C799.931 69.0938 799.159 69.2549 798.27 69.2549H791.037ZM793.853 66.7882H797.77C798.448 66.7882 798.97 66.6438 799.337 66.3549C799.703 66.0549 799.887 65.6271 799.887 65.0715C799.887 64.516 799.703 64.0938 799.337 63.8049C798.981 63.516 798.465 63.3715 797.787 63.3715H793.853V66.7882ZM793.853 61.1382H797.57C798.103 61.1382 798.509 61.016 798.787 60.7715C799.076 60.516 799.22 60.1493 799.22 59.6715C799.22 59.1938 799.076 58.8327 798.787 58.5882C798.509 58.3438 798.103 58.2215 797.57 58.2215H793.853V61.1382ZM809.056 69.4549C807.979 69.4549 807.04 69.2438 806.24 68.8215C805.44 68.3882 804.823 67.7827 804.39 67.0049C803.956 66.216 803.74 65.2882 803.74 64.2215C803.74 63.1549 803.951 62.2382 804.373 61.4715C804.795 60.6938 805.395 60.0993 806.173 59.6882C806.962 59.266 807.89 59.0549 808.956 59.0549C810.001 59.0549 810.895 59.2549 811.64 59.6549C812.395 60.0549 812.973 60.6271 813.373 61.3715C813.773 62.116 813.973 63.0049 813.973 64.0382V64.9715H806.39C806.501 65.716 806.784 66.2827 807.24 66.6715C807.695 67.0604 808.295 67.2549 809.04 67.2549C809.629 67.2549 810.095 67.1549 810.44 66.9549C810.784 66.7549 811.029 66.4493 811.173 66.0382H813.94C813.717 67.1049 813.179 67.9438 812.323 68.5549C811.467 69.1549 810.379 69.4549 809.056 69.4549ZM806.456 63.1382H811.323C811.234 62.5049 810.99 62.0327 810.59 61.7215C810.19 61.3993 809.651 61.2382 808.973 61.2382C808.295 61.2382 807.74 61.3993 807.306 61.7215C806.884 62.0438 806.601 62.516 806.456 63.1382ZM816.134 69.2549V61.9882H814.768V59.2549H817.568V60.8882H818.268C818.657 60.3104 819.146 59.866 819.734 59.5549C820.323 59.2327 821.057 59.0715 821.934 59.0715C823.323 59.0715 824.396 59.4549 825.151 60.2215C825.918 60.9771 826.301 61.9938 826.301 63.2715V69.2549H823.534V63.7882C823.534 63.0549 823.334 62.4993 822.934 62.1215C822.546 61.7327 821.973 61.5382 821.218 61.5382C820.462 61.5382 819.884 61.7327 819.484 62.1215C819.096 62.4993 818.901 63.0549 818.901 63.7882V69.2549H816.134ZM831.392 69.2549C830.681 69.2549 830.126 69.0771 829.726 68.7215C829.337 68.3549 829.142 67.7993 829.142 67.0549V61.4215H827.426V59.2549H829.176V56.2549H831.876V59.2549H834.192V61.4215H831.909V67.0882H834.426V69.2549H831.392ZM840.554 69.4549C839.465 69.4549 838.515 69.2438 837.704 68.8215C836.904 68.3882 836.282 67.7827 835.838 67.0049C835.393 66.2271 835.171 65.3049 835.171 64.2382C835.171 63.1827 835.388 62.266 835.821 61.4882C836.265 60.7104 836.893 60.1104 837.704 59.6882C838.515 59.266 839.471 59.0549 840.571 59.0549C841.66 59.0549 842.604 59.266 843.404 59.6882C844.204 60.1104 844.821 60.7104 845.254 61.4882C845.688 62.266 845.904 63.1882 845.904 64.2549C845.904 65.3104 845.688 66.2327 845.254 67.0215C844.821 67.7993 844.199 68.3993 843.388 68.8215C842.588 69.2438 841.643 69.4549 840.554 69.4549ZM840.554 67.0549C841.388 67.0549 842.026 66.8049 842.471 66.3049C842.915 65.7938 843.138 65.1049 843.138 64.2382C843.138 63.3715 842.915 62.6938 842.471 62.2049C842.026 61.7049 841.388 61.4549 840.554 61.4549C839.71 61.4549 839.06 61.7049 838.604 62.2049C838.16 62.6938 837.938 63.3715 837.938 64.2382C837.938 65.1049 838.16 65.7938 838.604 66.3049C839.06 66.8049 839.71 67.0549 840.554 67.0549ZM855.1 69.2549L851.25 55.7549H854.217L856.65 64.8549H856.733L859.517 55.7549H861.983L864.933 64.8549H865L867.4 55.7549H870.383L866.533 69.2549H863.717L860.783 59.8382H860.717L857.917 69.2549H855.1ZM871.792 69.2549V59.2549H874.559V69.2549H871.792ZM873.175 58.2715C872.753 58.2715 872.392 58.1271 872.092 57.8382C871.803 57.5382 871.659 57.1771 871.659 56.7549C871.659 56.3327 871.803 55.9771 872.092 55.6882C872.392 55.3882 872.753 55.2382 873.175 55.2382C873.598 55.2382 873.953 55.3882 874.242 55.6882C874.542 55.9771 874.692 56.3327 874.692 56.7549C874.692 57.1771 874.542 57.5382 874.242 57.8382C873.953 58.1271 873.598 58.2715 873.175 58.2715ZM880.834 69.4549C879.812 69.4549 878.939 69.2382 878.217 68.8049C877.506 68.3715 876.967 67.766 876.601 66.9882C876.234 66.1993 876.051 65.2882 876.051 64.2549C876.051 63.2104 876.228 62.2993 876.584 61.5215C876.939 60.7327 877.456 60.1271 878.134 59.7049C878.823 59.2715 879.645 59.0549 880.601 59.0549C881.334 59.0549 881.962 59.1938 882.484 59.4715C883.017 59.7382 883.428 60.1215 883.717 60.6215H883.784V55.2549H886.551V66.5215H887.917V69.2549H885.117V67.6215H884.417C884.062 68.1993 883.584 68.6493 882.984 68.9715C882.395 69.2938 881.678 69.4549 880.834 69.4549ZM881.351 67.0549C882.095 67.0549 882.684 66.8493 883.117 66.4382C883.562 66.016 883.784 65.4382 883.784 64.7049V63.8049C883.784 63.0715 883.562 62.4993 883.117 62.0882C882.684 61.666 882.095 61.4549 881.351 61.4549C880.506 61.4549 879.873 61.7049 879.451 62.2049C879.028 62.7049 878.817 63.3882 878.817 64.2549C878.817 65.1215 879.028 65.8049 879.451 66.3049C879.873 66.8049 880.506 67.0549 881.351 67.0549ZM894.072 73.4549C892.572 73.4549 891.349 73.1493 890.405 72.5382C889.472 71.9382 888.916 71.0993 888.738 70.0215H891.672C891.938 70.8438 892.711 71.2549 893.988 71.2549C894.855 71.2549 895.516 71.0549 895.972 70.6549C896.438 70.266 896.672 69.6993 896.672 68.9549V67.6215H896.588C896.288 68.1549 895.872 68.5604 895.338 68.8382C894.816 69.116 894.188 69.2549 893.455 69.2549C892.511 69.2549 891.688 69.0493 890.988 68.6382C890.299 68.216 889.761 67.6215 889.372 66.8549C888.994 66.0882 888.805 65.1882 888.805 64.1549C888.805 62.5993 889.233 61.3604 890.088 60.4382C890.955 59.516 892.138 59.0549 893.638 59.0549C894.483 59.0549 895.199 59.216 895.788 59.5382C896.388 59.8604 896.866 60.3104 897.222 60.8882H897.922V59.2549H900.722V61.9882H899.355V68.9882C899.355 70.4104 898.899 71.5104 897.988 72.2882C897.077 73.066 895.772 73.4549 894.072 73.4549ZM894.138 66.8549C894.905 66.8549 895.505 66.6438 895.938 66.2215C896.372 65.7993 896.588 65.2215 896.588 64.4882V63.7882C896.588 63.066 896.366 62.4993 895.922 62.0882C895.488 61.666 894.894 61.4549 894.138 61.4549C893.327 61.4549 892.694 61.6938 892.238 62.1715C891.794 62.6493 891.572 63.316 891.572 64.1715C891.572 65.0271 891.794 65.6882 892.238 66.1549C892.694 66.6215 893.327 66.8549 894.138 66.8549ZM906.846 69.4549C905.768 69.4549 904.829 69.2438 904.029 68.8215C903.229 68.3882 902.613 67.7827 902.179 67.0049C901.746 66.216 901.529 65.2882 901.529 64.2215C901.529 63.1549 901.741 62.2382 902.163 61.4715C902.585 60.6938 903.185 60.0993 903.963 59.6882C904.752 59.266 905.679 59.0549 906.746 59.0549C907.791 59.0549 908.685 59.2549 909.429 59.6549C910.185 60.0549 910.763 60.6271 911.163 61.3715C911.563 62.116 911.763 63.0049 911.763 64.0382V64.9715H904.179C904.291 65.716 904.574 66.2827 905.029 66.6715C905.485 67.0604 906.085 67.2549 906.829 67.2549C907.418 67.2549 907.885 67.1549 908.229 66.9549C908.574 66.7549 908.818 66.4493 908.963 66.0382H911.729C911.507 67.1049 910.968 67.9438 910.113 68.5549C909.257 69.1549 908.168 69.4549 906.846 69.4549ZM904.246 63.1382H909.113C909.024 62.5049 908.779 62.0327 908.379 61.7215C907.979 61.3993 907.441 61.2382 906.763 61.2382C906.085 61.2382 905.529 61.3993 905.096 61.7215C904.674 62.0438 904.391 62.516 904.246 63.1382ZM916.374 69.2549C915.663 69.2549 915.108 69.0771 914.708 68.7215C914.319 68.3549 914.124 67.7993 914.124 67.0549V61.4215H912.408V59.2549H914.158V56.2549H916.858V59.2549H919.174V61.4215H916.891V67.0882H919.408V69.2549H916.374Z" fill="#262626"/>
<path d="M837.265 87.7805V78.9155C837.265 78.2155 837.47 77.6505 837.88 77.2205C838.29 76.7905 838.88 76.5755 839.65 76.5755C839.95 76.5755 840.24 76.6155 840.52 76.6955C840.8 76.7755 841.035 76.9005 841.225 77.0705L840.865 77.8655C840.715 77.7355 840.54 77.6405 840.34 77.5805C840.14 77.5105 839.925 77.4755 839.695 77.4755C839.245 77.4755 838.9 77.6005 838.66 77.8505C838.42 78.1005 838.3 78.4705 838.3 78.9605V80.1605L838.33 80.6555V87.7805H837.265ZM835.855 80.7905V79.9055H840.73V80.7905H835.855ZM845.096 87.8555C844.336 87.8555 843.651 87.6855 843.041 87.3455C842.441 86.9955 841.966 86.5205 841.616 85.9205C841.266 85.3105 841.091 84.6155 841.091 83.8355C841.091 83.0455 841.266 82.3505 841.616 81.7505C841.966 81.1505 842.441 80.6805 843.041 80.3405C843.641 80.0005 844.326 79.8305 845.096 79.8305C845.876 79.8305 846.566 80.0005 847.166 80.3405C847.776 80.6805 848.251 81.1505 848.591 81.7505C848.941 82.3505 849.116 83.0455 849.116 83.8355C849.116 84.6155 848.941 85.3105 848.591 85.9205C848.251 86.5205 847.776 86.9955 847.166 87.3455C846.556 87.6855 845.866 87.8555 845.096 87.8555ZM845.096 86.9105C845.666 86.9105 846.171 86.7855 846.611 86.5355C847.051 86.2755 847.396 85.9155 847.646 85.4555C847.906 84.9855 848.036 84.4455 848.036 83.8355C848.036 83.2155 847.906 82.6755 847.646 82.2155C847.396 81.7555 847.051 81.4005 846.611 81.1505C846.171 80.8905 845.671 80.7605 845.111 80.7605C844.551 80.7605 844.051 80.8905 843.611 81.1505C843.171 81.4005 842.821 81.7555 842.561 82.2155C842.301 82.6755 842.171 83.2155 842.171 83.8355C842.171 84.4455 842.301 84.9855 842.561 85.4555C842.821 85.9155 843.171 86.2755 843.611 86.5355C844.051 86.7855 844.546 86.9105 845.096 86.9105ZM851.14 87.7805V79.9055H852.16V82.0505L852.055 81.6755C852.275 81.0755 852.645 80.6205 853.165 80.3105C853.685 79.9905 854.33 79.8305 855.1 79.8305V80.8655C855.06 80.8655 855.02 80.8655 854.98 80.8655C854.94 80.8555 854.9 80.8505 854.86 80.8505C854.03 80.8505 853.38 81.1055 852.91 81.6155C852.44 82.1155 852.205 82.8305 852.205 83.7605V87.7805H851.14ZM876.929 87.8705C876.139 87.8705 875.404 87.7405 874.724 87.4805C874.054 87.2105 873.469 86.8355 872.969 86.3555C872.479 85.8655 872.094 85.3005 871.814 84.6605C871.544 84.0105 871.409 83.3005 871.409 82.5305C871.409 81.7605 871.544 81.0555 871.814 80.4155C872.094 79.7655 872.479 79.2005 872.969 78.7205C873.469 78.2305 874.054 77.8555 874.724 77.5955C875.394 77.3255 876.129 77.1905 876.929 77.1905C877.719 77.1905 878.449 77.3255 879.119 77.5955C879.789 77.8555 880.369 78.2255 880.859 78.7055C881.359 79.1855 881.744 79.7505 882.014 80.4005C882.294 81.0505 882.434 81.7605 882.434 82.5305C882.434 83.3005 882.294 84.0105 882.014 84.6605C881.744 85.3105 881.359 85.8755 880.859 86.3555C880.369 86.8355 879.789 87.2105 879.119 87.4805C878.449 87.7405 877.719 87.8705 876.929 87.8705ZM876.929 86.8805C877.559 86.8805 878.139 86.7755 878.669 86.5655C879.209 86.3455 879.674 86.0405 880.064 85.6505C880.464 85.2505 880.774 84.7905 880.994 84.2705C881.214 83.7405 881.324 83.1605 881.324 82.5305C881.324 81.9005 881.214 81.3255 880.994 80.8055C880.774 80.2755 880.464 79.8155 880.064 79.4255C879.674 79.0255 879.209 78.7205 878.669 78.5105C878.139 78.2905 877.559 78.1805 876.929 78.1805C876.299 78.1805 875.714 78.2905 875.174 78.5105C874.634 78.7205 874.164 79.0255 873.764 79.4255C873.374 79.8155 873.064 80.2755 872.834 80.8055C872.614 81.3255 872.504 81.9005 872.504 82.5305C872.504 83.1505 872.614 83.7255 872.834 84.2555C873.064 84.7855 873.374 85.2505 873.764 85.6505C874.164 86.0405 874.634 86.3455 875.174 86.5655C875.714 86.7755 876.299 86.8805 876.929 86.8805ZM884.547 87.7805V79.9055H885.567V82.0655L885.402 81.6605C885.652 81.0905 886.052 80.6455 886.602 80.3255C887.152 79.9955 887.807 79.8305 888.567 79.8305C889.207 79.8305 889.767 79.9555 890.247 80.2055C890.737 80.4455 891.117 80.8155 891.387 81.3155C891.667 81.8155 891.807 82.4455 891.807 83.2055V87.7805H890.742V83.3105C890.742 82.4805 890.532 81.8555 890.112 81.4355C889.702 81.0055 889.122 80.7905 888.372 80.7905C887.812 80.7905 887.322 80.9055 886.902 81.1355C886.492 81.3555 886.172 81.6805 885.942 82.1105C885.722 82.5305 885.612 83.0405 885.612 83.6405V87.7805H884.547ZM894.533 87.7805V79.9055H895.598V87.7805H894.533ZM895.073 78.1655C894.853 78.1655 894.668 78.0905 894.518 77.9405C894.368 77.7905 894.293 77.6105 894.293 77.4005C894.293 77.1905 894.368 77.0155 894.518 76.8755C894.668 76.7255 894.853 76.6505 895.073 76.6505C895.293 76.6505 895.478 76.7205 895.628 76.8605C895.778 77.0005 895.853 77.1755 895.853 77.3855C895.853 77.6055 895.778 77.7905 895.628 77.9405C895.488 78.0905 895.303 78.1655 895.073 78.1655ZM901.772 90.7655C901.052 90.7655 900.362 90.6605 899.702 90.4505C899.042 90.2405 898.507 89.9405 898.097 89.5505L898.637 88.7405C899.007 89.0705 899.462 89.3305 900.002 89.5205C900.552 89.7205 901.132 89.8205 901.742 89.8205C902.742 89.8205 903.477 89.5855 903.947 89.1155C904.417 88.6555 904.652 87.9355 904.652 86.9555V84.9905L904.802 83.6405L904.697 82.2905V79.9055H905.717V86.8205C905.717 88.1805 905.382 89.1755 904.712 89.8055C904.052 90.4455 903.072 90.7655 901.772 90.7655ZM901.577 87.4805C900.827 87.4805 900.152 87.3205 899.552 87.0005C898.952 86.6705 898.477 86.2155 898.127 85.6355C897.787 85.0555 897.617 84.3905 897.617 83.6405C897.617 82.8905 897.787 82.2305 898.127 81.6605C898.477 81.0805 898.952 80.6305 899.552 80.3105C900.152 79.9905 900.827 79.8305 901.577 79.8305C902.277 79.8305 902.907 79.9755 903.467 80.2655C904.027 80.5555 904.472 80.9855 904.802 81.5555C905.132 82.1255 905.297 82.8205 905.297 83.6405C905.297 84.4605 905.132 85.1555 904.802 85.7255C904.472 86.2955 904.027 86.7305 903.467 87.0305C902.907 87.3305 902.277 87.4805 901.577 87.4805ZM901.682 86.5355C902.262 86.5355 902.777 86.4155 903.227 86.1755C903.677 85.9255 904.032 85.5855 904.292 85.1555C904.552 84.7155 904.682 84.2105 904.682 83.6405C904.682 83.0705 904.552 82.5705 904.292 82.1405C904.032 81.7105 903.677 81.3755 903.227 81.1355C902.777 80.8855 902.262 80.7605 901.682 80.7605C901.112 80.7605 900.597 80.8855 900.137 81.1355C899.687 81.3755 899.332 81.7105 899.072 82.1405C898.822 82.5705 898.697 83.0705 898.697 83.6405C898.697 84.2105 898.822 84.7155 899.072 85.1555C899.332 85.5855 899.687 85.9255 900.137 86.1755C900.597 86.4155 901.112 86.5355 901.682 86.5355ZM908.53 87.7805V79.9055H909.595V87.7805H908.53ZM909.07 78.1655C908.85 78.1655 908.665 78.0905 908.515 77.9405C908.365 77.7905 908.29 77.6105 908.29 77.4005C908.29 77.1905 908.365 77.0155 908.515 76.8755C908.665 76.7255 908.85 76.6505 909.07 76.6505C909.29 76.6505 909.475 76.7205 909.625 76.8605C909.775 77.0005 909.85 77.1755 909.85 77.3855C909.85 77.6055 909.775 77.7905 909.625 77.9405C909.485 78.0905 909.3 78.1655 909.07 78.1655ZM912.409 87.7805V79.9055H913.429V82.0505L913.324 81.6755C913.544 81.0755 913.914 80.6205 914.434 80.3105C914.954 79.9905 915.599 79.8305 916.369 79.8305V80.8655C916.329 80.8655 916.289 80.8655 916.249 80.8655C916.209 80.8555 916.169 80.8505 916.129 80.8505C915.299 80.8505 914.649 81.1055 914.179 81.6155C913.709 82.1155 913.474 82.8305 913.474 83.7605V87.7805H912.409ZM918.162 87.7805V79.9055H919.227V87.7805H918.162ZM918.702 78.1655C918.482 78.1655 918.297 78.0905 918.147 77.9405C917.997 77.7905 917.922 77.6105 917.922 77.4005C917.922 77.1905 917.997 77.0155 918.147 76.8755C918.297 76.7255 918.482 76.6505 918.702 76.6505C918.922 76.6505 919.107 76.7205 919.257 76.8605C919.407 77.0005 919.482 77.1755 919.482 77.3855C919.482 77.6055 919.407 77.7905 919.257 77.9405C919.117 78.0905 918.932 78.1655 918.702 78.1655Z" fill="#262626"/>
<path d="M760.216 60.9695C760.216 60.6774 760.269 60.3854 760.375 60.1048C760.618 59.4659 761.265 58.9114 762.557 57.8026L769.022 52.2627C770.315 51.1539 770.962 50.5994 771.706 50.3918C772.363 50.2092 773.069 50.2092 773.725 50.3918C774.47 50.6006 775.117 51.1539 776.41 52.2627L782.874 57.8026C784.167 58.9114 784.814 59.4659 785.056 60.1048C785.163 60.3854 785.216 60.6774 785.216 60.9695V64.5403C785.216 64.8323 785.163 65.1244 785.056 65.405C784.814 66.0439 784.167 66.5983 782.874 67.7061L776.41 73.247C775.117 74.3559 774.47 74.9092 773.725 75.118C773.069 75.3005 772.363 75.3005 771.706 75.118C770.962 74.9092 770.315 74.3559 769.022 73.247L762.557 67.7061C761.265 66.5995 760.618 66.0439 760.375 65.405C760.271 65.1309 760.217 64.8371 760.216 64.5403V60.9695ZM769.945 57.2755L770.869 58.0672C771.515 58.6205 771.838 58.8978 772.212 59.0027C772.54 59.094 772.892 59.094 773.22 59.0027C773.593 58.8978 773.916 58.6205 774.564 58.0672L775.487 57.2755C776.132 56.7211 776.455 56.4438 776.577 56.1244C776.63 55.9875 776.657 55.8405 776.657 55.692C776.657 55.5436 776.63 55.3966 776.577 55.2597C776.456 54.9402 776.132 54.663 775.487 54.1097L774.563 53.318C773.917 52.7636 773.594 52.4863 773.22 52.3825C772.889 52.2921 772.543 52.2921 772.212 52.3825C771.839 52.4863 771.516 52.7636 770.868 53.318L769.945 54.1097C769.299 54.663 768.976 54.9402 768.854 55.2597C768.802 55.3966 768.775 55.5436 768.775 55.692C768.775 55.8405 768.802 55.9875 768.854 56.1244C768.975 56.4438 769.299 56.7211 769.945 57.2755ZM776.101 62.5518L777.025 63.3435C777.671 63.898 777.995 64.1752 778.369 64.279C778.696 64.3703 779.049 64.3703 779.377 64.279C779.75 64.1752 780.073 63.898 780.719 63.3435L781.643 62.5518C782.289 61.9985 782.613 61.7213 782.734 61.4019C782.786 61.2649 782.813 61.118 782.813 60.9695C782.813 60.821 782.786 60.674 782.734 60.5371C782.613 60.2177 782.29 59.9405 781.643 59.386L780.719 58.5943C780.073 58.041 779.75 57.7638 779.377 57.6588C779.046 57.5682 778.699 57.5682 778.368 57.6588C777.995 57.7638 777.672 58.041 777.025 58.5943L776.102 59.386C775.455 59.9405 775.132 60.2177 775.012 60.5371C774.959 60.674 774.932 60.821 774.932 60.9695C774.932 61.118 774.959 61.2649 775.012 61.4019C775.132 61.7213 775.455 61.9985 776.102 62.5518H776.101ZM763.789 62.5518L770.869 68.621C771.515 69.1754 771.838 69.4515 772.212 69.5565C772.54 69.6477 772.892 69.6477 773.22 69.5565C773.593 69.4515 773.916 69.1754 774.564 68.621L775.487 67.8293C776.132 67.2748 776.455 66.9976 776.577 66.6782C776.63 66.5414 776.658 66.3944 776.658 66.2458C776.658 66.0972 776.63 65.9502 776.577 65.8134C776.456 65.494 776.132 65.2168 775.487 64.6635L768.406 58.5943C767.761 58.041 767.437 57.7638 767.063 57.6588C766.732 57.5684 766.385 57.5684 766.054 57.6588C765.681 57.7638 765.359 58.041 764.713 58.5943L763.789 59.386C763.143 59.9405 762.819 60.2177 762.698 60.5371C762.646 60.674 762.619 60.821 762.619 60.9695C762.619 61.118 762.646 61.2649 762.698 61.4019C762.819 61.7213 763.142 61.9985 763.789 62.5518Z" fill="#38DC75"/>
<path d="M869.67 82.2577L866.036 78.9061L866.029 78.8995C865.709 78.6208 865.323 78.4284 864.909 78.3404C864.494 78.2524 864.063 78.2717 863.657 78.3964C863.252 78.5211 862.885 78.7472 862.591 79.0533C862.298 79.3594 862.087 79.7353 861.979 80.1455L861.977 80.1551L860.855 84.9696C860.743 85.3993 860.748 85.8511 860.869 86.2783C860.99 86.7055 861.223 87.0927 861.544 87.3999C861.864 87.707 862.261 87.9229 862.693 88.0254C863.125 88.1279 863.577 88.1132 864.001 87.9828L868.762 86.5182C869.186 86.3875 869.568 86.1458 869.868 85.8182C870.167 85.4906 870.374 85.0889 870.467 84.6546C870.559 84.2203 870.534 83.7692 870.394 83.3478C870.254 82.9265 870.004 82.5501 869.67 82.2577ZM869.77 84.5046C869.707 84.8161 869.56 85.1045 869.345 85.3391C869.131 85.5737 868.857 85.7458 868.552 85.8371L868.215 85.9407L867.587 83.8973C867.531 83.7166 867.406 83.5654 867.239 83.477C867.072 83.3886 866.877 83.3701 866.696 83.4257L863.971 84.2639C863.791 84.3195 863.64 84.4445 863.551 84.6116C863.463 84.7786 863.444 84.974 863.5 85.1546L864.129 87.198L863.792 87.3016C863.488 87.3951 863.165 87.4058 862.856 87.3325C862.547 87.2592 862.263 87.1046 862.034 86.8848C861.805 86.665 861.639 86.3879 861.553 86.0822C861.466 85.7766 861.464 85.4534 861.544 85.1463C861.545 85.143 861.546 85.1397 861.546 85.1363L862.668 80.3222C862.746 80.0302 862.896 79.7627 863.106 79.545C863.315 79.3273 863.577 79.1664 863.866 79.0776C864.154 78.9887 864.461 78.9748 864.757 79.0371C865.053 79.0994 865.327 79.2358 865.556 79.4337L869.19 82.7848C869.192 82.7873 869.194 82.7897 869.197 82.7919C869.438 82.9989 869.619 83.2674 869.72 83.569C869.821 83.8706 869.839 84.194 869.77 84.5046Z" fill="#262626"/>
</svg>
